<?xml version="1.0" standalone="no"?>
<!DOCTYPE svg PUBLIC "-//W3C//DTD SVG 20010904//EN"
 "http://www.w3.org/TR/2001/REC-SVG-20010904/DTD/svg10.dtd">
<svg version="1.0" xmlns="http://www.w3.org/2000/svg"
 width="362.000000pt" height="362.000000pt" viewBox="0 0 362.000000 362.000000"
 preserveAspectRatio="xMidYMid meet">
<metadata>
Created by potrace 1.14, written by Peter Selinger 2001-2017
</metadata>
<g transform="translate(0.000000,362.000000) scale(0.100000,-0.100000)"
fill="#000000" stroke="none">
<path d="M1797 3584 c-3 -3 -38 -7 -79 -9 -136 -7 -282 -29 -304 -47 -6 -4
-18 -6 -27 -2 -8 3 -18 1 -22 -5 -3 -6 -17 -11 -30 -11 -13 0 -26 -4 -30 -10
-3 -5 -12 -7 -19 -4 -8 3 -17 1 -21 -5 -3 -6 -15 -11 -26 -11 -10 0 -27 -4
-37 -9 -9 -5 -28 -13 -42 -19 -35 -14 -92 -41 -110 -51 -8 -5 -31 -17 -50 -26
-67 -32 -90 -46 -90 -56 0 -5 -9 -9 -19 -9 -10 0 -22 -7 -25 -16 -3 -8 -10
-13 -15 -10 -4 3 -16 -3 -26 -14 -10 -11 -24 -20 -32 -20 -7 0 -13 -5 -13 -10
0 -6 -8 -13 -17 -17 -19 -6 -24 -11 -84 -66 -20 -19 -43 -37 -52 -40 -10 -4
-17 -13 -17 -22 0 -8 -5 -15 -11 -15 -13 0 -99 -87 -99 -100 0 -5 -9 -14 -20
-20 -11 -6 -20 -17 -20 -24 0 -8 -7 -16 -15 -20 -8 -3 -15 -9 -15 -14 0 -5
-16 -27 -35 -48 -19 -21 -35 -43 -35 -50 0 -7 -3 -14 -7 -16 -11 -4 -46 -56
-66 -98 -10 -19 -26 -48 -37 -65 -10 -16 -19 -37 -19 -46 -1 -9 -8 -22 -16
-29 -9 -7 -14 -19 -11 -27 3 -7 2 -13 -3 -13 -9 0 -56 -115 -56 -137 0 -6 -4
-15 -8 -19 -4 -4 -7 -18 -7 -31 0 -12 -4 -23 -8 -23 -8 0 -32 -94 -33 -130 0
-8 -3 -22 -6 -30 -4 -8 -7 -26 -9 -40 -1 -14 -5 -47 -9 -75 -4 -27 -9 -86 -10
-130 -2 -44 -5 -82 -6 -85 -1 -3 0 -9 1 -15 1 -5 4 -46 5 -90 2 -44 3 -80 4
-80 1 0 4 -18 6 -40 10 -90 29 -192 42 -225 4 -8 5 -19 4 -24 -1 -6 2 -19 7
-30 5 -12 17 -48 28 -81 10 -33 21 -67 25 -75 4 -8 12 -28 19 -45 7 -16 16
-37 21 -45 5 -8 19 -36 31 -62 12 -27 25 -48 30 -48 4 0 8 -9 8 -20 0 -11 5
-20 10 -20 6 0 10 -9 10 -20 0 -10 6 -23 13 -27 14 -9 32 -37 47 -70 5 -13 14
-23 20 -23 5 0 10 -7 10 -15 0 -9 7 -18 15 -21 8 -4 15 -12 15 -20 0 -8 9 -19
20 -26 11 -7 20 -17 20 -22 0 -5 18 -27 40 -48 22 -22 40 -44 40 -49 0 -5 7
-9 15 -9 8 0 15 -7 15 -15 0 -9 8 -19 18 -22 9 -4 31 -22 48 -40 17 -18 36
-33 43 -33 6 0 11 -7 11 -15 0 -9 9 -15 25 -15 23 0 24 2 15 20 -6 11 -17 20
-25 20 -8 0 -15 6 -15 14 0 8 -9 17 -19 21 -11 3 -22 12 -25 20 -3 8 -12 15
-20 15 -7 0 -16 9 -19 20 -3 11 -12 20 -21 20 -9 0 -16 6 -16 13 0 6 -16 27
-35 44 -19 18 -35 37 -35 43 0 6 -7 13 -15 16 -8 4 -15 11 -15 18 0 6 -8 19
-17 28 -39 37 -53 55 -53 66 0 7 -5 12 -10 12 -6 0 -15 11 -20 25 -5 14 -14
25 -20 25 -5 0 -10 9 -10 20 0 11 -4 20 -10 20 -5 0 -10 9 -10 20 0 11 -7 23
-15 26 -8 4 -15 14 -16 23 0 9 -9 30 -20 46 -10 17 -21 37 -25 45 -3 8 -10 23
-15 32 -5 10 -9 25 -9 33 0 8 -4 15 -10 15 -5 0 -10 11 -10 25 0 14 -4 25 -10
25 -5 0 -10 11 -10 24 0 14 -4 27 -10 31 -5 3 -7 12 -4 19 3 8 1 17 -5 21 -6
3 -11 16 -11 29 0 12 -3 26 -7 30 -4 3 -8 14 -9 24 -1 9 -7 35 -13 56 -5 22
-7 44 -5 48 3 5 0 15 -6 23 -7 8 -10 21 -7 30 4 8 2 17 -3 20 -6 4 -7 17 -4
30 3 12 2 25 -3 28 -5 3 -8 90 -6 194 2 178 5 218 18 288 3 17 8 50 11 75 3
25 10 50 16 57 5 7 7 17 4 22 -4 5 -2 12 4 16 5 3 10 17 10 30 0 13 5 27 11
31 6 3 9 15 6 25 -3 10 1 23 9 30 8 6 11 15 9 20 -5 8 -2 16 23 66 7 13 12 30
12 38 0 8 5 15 10 15 6 0 10 11 10 24 0 13 7 26 15 30 8 3 15 15 15 26 0 11 5
20 10 20 6 0 10 8 10 19 0 10 7 24 15 31 8 7 15 19 15 26 0 8 4 14 9 14 5 0
13 10 17 23 4 12 9 24 13 27 12 10 51 69 51 79 0 5 7 11 15 15 8 3 15 12 15
20 0 7 7 16 15 20 8 3 15 12 15 21 0 8 6 15 14 15 8 0 17 9 21 19 3 11 12 22
20 25 8 3 15 12 15 21 0 8 7 15 16 15 9 0 18 9 21 20 3 11 9 20 13 20 5 0 33
24 63 54 30 29 62 56 71 59 9 4 16 11 16 17 0 5 7 10 15 10 9 0 18 7 21 15 4
8 13 15 20 15 8 0 17 7 20 15 4 8 13 15 20 15 8 0 17 7 20 15 4 8 14 15 25 15
10 0 22 6 26 13 4 8 15 17 23 20 8 4 29 16 45 26 17 11 38 20 48 20 10 1 20 8
23 16 4 8 12 15 20 15 8 0 22 4 32 9 19 10 67 30 97 41 11 4 31 12 45 18 50
21 65 25 78 23 8 -1 19 2 25 7 7 5 31 13 54 17 24 4 45 11 49 16 3 5 16 6 29
3 12 -3 26 -1 29 5 4 5 13 8 21 5 8 -3 20 -2 27 2 14 9 20 10 163 19 131 8
106 8 235 0 126 -9 140 -10 163 -20 10 -4 21 -5 24 -1 3 3 12 1 19 -5 8 -6 20
-9 29 -6 8 4 17 2 21 -4 3 -6 16 -9 27 -8 22 2 43 -4 83 -23 11 -5 24 -8 30
-7 10 2 39 -7 66 -22 10 -5 27 -9 38 -9 11 0 20 -4 20 -10 0 -5 7 -10 15 -10
8 0 24 -4 35 -10 11 -5 29 -14 40 -20 11 -5 26 -10 34 -10 8 0 16 -7 20 -15 3
-8 13 -15 23 -16 10 0 32 -9 48 -20 17 -10 37 -22 45 -26 8 -3 19 -12 23 -20
4 -7 16 -13 26 -13 11 0 21 -7 25 -15 3 -8 12 -15 21 -15 8 0 15 -5 15 -10 0
-6 11 -15 25 -20 14 -5 25 -14 25 -20 0 -5 6 -10 13 -10 7 0 20 -8 29 -17 37
-39 55 -53 66 -53 7 0 12 -6 12 -14 0 -8 9 -18 20 -21 11 -3 20 -13 20 -21 0
-8 6 -14 14 -14 8 0 18 -9 21 -20 3 -11 13 -20 21 -20 8 0 14 -7 14 -15 0 -8
9 -19 20 -25 11 -6 20 -17 20 -25 0 -8 7 -15 15 -15 8 0 15 -7 15 -15 0 -9 7
-18 15 -21 8 -4 15 -10 15 -15 0 -13 42 -72 58 -82 6 -4 12 -15 12 -23 0 -8 7
-17 15 -20 8 -4 15 -15 15 -25 0 -10 4 -19 9 -19 5 0 12 -11 15 -25 4 -14 11
-25 16 -25 6 0 10 -9 10 -20 0 -11 5 -20 10 -20 6 0 10 -8 10 -19 0 -10 7 -24
15 -31 8 -7 13 -16 10 -20 -3 -5 2 -15 10 -23 8 -9 15 -20 15 -26 0 -11 5 -23
28 -68 7 -13 12 -32 12 -43 0 -11 4 -20 9 -20 5 0 7 -8 4 -19 -3 -10 0 -22 6
-25 6 -4 11 -18 11 -31 0 -13 5 -27 10 -30 6 -4 8 -11 5 -16 -4 -5 -3 -15 2
-21 4 -7 9 -22 10 -33 1 -11 5 -32 8 -47 11 -55 16 -84 21 -128 8 -71 10 -401
2 -406 -4 -3 -7 -17 -7 -32 1 -46 -12 -126 -23 -139 -5 -7 -7 -17 -3 -23 4 -6
2 -16 -3 -23 -6 -7 -13 -30 -17 -52 -4 -22 -12 -46 -17 -52 -6 -7 -8 -20 -4
-28 3 -8 1 -15 -4 -15 -6 0 -10 -9 -10 -20 0 -11 -4 -29 -10 -40 -5 -11 -14
-29 -20 -40 -5 -11 -10 -27 -10 -35 0 -8 -4 -15 -8 -15 -9 0 -42 -70 -42 -88
0 -7 -4 -12 -10 -12 -5 0 -10 -8 -10 -19 0 -10 -7 -24 -15 -31 -8 -7 -15 -19
-15 -26 0 -8 -4 -14 -9 -14 -5 0 -13 -10 -17 -22 -3 -12 -12 -27 -18 -34 -6
-6 -18 -22 -26 -34 -8 -12 -23 -33 -32 -45 -10 -13 -18 -28 -18 -33 0 -5 -7
-12 -15 -16 -8 -3 -15 -12 -15 -21 0 -8 -6 -15 -14 -15 -8 0 -17 -9 -21 -19
-3 -11 -12 -22 -20 -25 -8 -3 -15 -12 -15 -21 0 -8 -7 -15 -16 -15 -9 0 -18
-9 -21 -20 -3 -11 -9 -20 -14 -20 -5 0 -26 -17 -47 -37 -57 -56 -109 -100
-127 -106 -8 -4 -15 -11 -15 -17 0 -5 -7 -10 -15 -10 -7 0 -18 -6 -22 -12 -9
-15 -37 -33 -70 -48 -13 -5 -23 -14 -23 -20 0 -5 -9 -10 -20 -10 -11 0 -23 -7
-26 -15 -4 -8 -15 -15 -25 -15 -10 0 -19 -4 -19 -10 0 -5 -8 -10 -19 -10 -10
0 -24 -7 -31 -15 -7 -8 -16 -13 -20 -10 -5 3 -15 -2 -23 -10 -9 -8 -20 -15
-26 -15 -6 0 -19 -4 -29 -9 -9 -5 -29 -14 -44 -20 -16 -6 -38 -15 -50 -20 -13
-6 -39 -13 -58 -17 -19 -3 -39 -10 -45 -14 -5 -4 -41 -13 -80 -20 -38 -7 -74
-15 -79 -18 -6 -3 -19 -6 -30 -7 -12 -1 -57 -6 -101 -10 -101 -9 -366 -12
-371 -4 -2 4 -21 7 -41 7 -21 1 -81 11 -133 22 -52 12 -103 22 -112 24 -10 1
-21 5 -24 9 -4 4 -18 7 -30 7 -13 0 -26 5 -29 10 -4 6 -12 10 -18 9 -13 -2
-41 7 -69 22 -10 5 -24 9 -32 9 -7 0 -19 7 -26 15 -7 9 -19 14 -26 11 -7 -3
-16 -1 -19 4 -7 12 -65 40 -82 40 -7 0 -13 4 -13 10 0 5 -11 12 -25 16 -14 3
-25 10 -25 15 0 5 -9 9 -20 9 -11 0 -20 5 -20 10 0 6 -10 15 -22 20 -33 14
-61 33 -74 49 -7 9 -18 12 -30 7 -17 -7 -15 -10 16 -36 19 -16 40 -30 46 -30
7 0 14 -7 18 -15 3 -8 15 -15 26 -15 11 0 20 -4 20 -9 0 -11 56 -41 75 -41 7
0 15 -7 19 -15 3 -8 14 -15 25 -15 11 0 23 -5 26 -10 3 -6 15 -10 25 -10 10 0
20 -5 22 -11 2 -5 10 -11 18 -13 8 -1 25 -8 38 -14 12 -7 22 -10 22 -6 0 3 7
1 15 -6 9 -7 23 -14 33 -15 18 -2 48 -12 72 -24 9 -5 36 -12 60 -16 25 -4 50
-12 57 -17 7 -5 17 -7 23 -3 6 4 17 1 25 -5 8 -7 21 -10 30 -7 8 4 17 1 21 -4
3 -6 17 -8 29 -5 13 3 26 2 29 -3 7 -10 477 -7 536 3 19 4 45 6 57 6 12 0 25
5 28 10 3 5 12 7 20 3 9 -3 21 -1 28 5 6 5 32 13 57 17 24 4 51 11 60 16 18 9
52 22 65 24 17 2 93 33 115 46 8 5 22 12 30 15 8 3 23 10 32 15 10 5 25 9 33
9 8 0 15 4 15 9 0 5 11 12 25 15 14 4 25 11 25 16 0 6 9 10 20 10 11 0 23 7
26 15 4 8 15 15 25 15 10 0 19 5 19 10 0 6 11 15 25 20 14 5 25 14 25 19 0 5
8 11 18 15 30 10 90 57 165 128 21 21 42 38 47 38 5 0 12 9 15 20 3 11 13 20
21 20 8 0 14 5 14 11 0 6 18 29 40 52 66 68 70 73 70 84 0 6 7 13 15 17 8 3
15 12 15 20 0 9 9 20 20 26 11 6 20 15 20 19 0 5 18 36 40 69 22 33 40 64 40
70 0 5 7 15 15 22 8 7 15 21 15 31 0 11 5 19 10 19 6 0 10 8 10 19 0 10 7 24
15 31 9 7 14 19 11 26 -3 7 2 18 10 25 8 7 13 18 10 25 -3 7 2 18 10 25 8 6
13 17 13 23 -2 12 7 41 22 68 5 10 9 27 9 37 0 11 5 23 10 26 6 4 10 14 8 23
-1 10 0 22 4 27 3 6 13 49 22 98 13 69 16 148 16 381 -1 162 -5 297 -8 301 -4
4 -8 16 -9 28 -3 38 -25 122 -34 132 -5 5 -9 19 -9 31 0 13 -4 25 -10 29 -5 3
-7 12 -4 19 3 8 1 17 -5 21 -6 3 -11 17 -11 31 0 13 -4 24 -8 24 -4 0 -14 20
-21 45 -7 24 -19 49 -27 56 -8 6 -14 20 -14 30 0 11 -4 19 -10 19 -5 0 -10 9
-10 19 0 11 -4 23 -10 26 -5 3 -17 23 -27 43 -19 42 -54 95 -65 100 -5 2 -8
10 -8 18 0 8 -7 17 -15 20 -8 4 -15 11 -15 18 0 6 -16 28 -35 49 -19 21 -35
42 -35 47 0 5 -9 14 -20 20 -11 6 -20 17 -20 25 0 8 -7 15 -15 15 -8 0 -15 7
-15 16 0 9 -9 18 -19 21 -11 3 -21 13 -24 24 -3 10 -12 19 -21 19 -9 0 -16 6
-16 14 0 8 -9 17 -19 21 -11 3 -22 12 -25 20 -3 8 -12 15 -21 15 -8 0 -15 6
-15 14 0 8 -9 18 -20 21 -11 3 -20 11 -20 16 0 5 -11 14 -25 19 -14 5 -25 14
-25 20 0 5 -7 10 -15 10 -9 0 -18 7 -21 15 -4 8 -14 15 -24 15 -10 0 -20 7
-24 15 -3 8 -15 15 -26 15 -11 0 -20 5 -20 10 0 6 -10 15 -22 20 -13 6 -36 19
-53 29 -16 11 -36 20 -43 20 -7 1 -20 8 -28 16 -8 8 -21 12 -28 9 -7 -3 -16 2
-19 10 -4 9 -13 16 -22 16 -8 0 -23 4 -33 9 -9 5 -28 13 -42 19 -14 5 -38 15
-53 21 -16 6 -32 9 -37 6 -5 -3 -11 -1 -15 5 -3 5 -17 10 -30 10 -13 0 -26 4
-30 9 -3 6 -13 10 -23 10 -27 2 -66 8 -82 14 -18 7 -119 25 -140 26 -64 0
-170 10 -180 16 -6 4 -17 2 -22 -3 -7 -7 -17 -8 -28 -2 -10 5 -20 7 -23 4z"/>
<path d="M1627 3195 c-250 -48 -442 -222 -423 -386 4 -37 1 -47 -15 -58 -33
-20 -22 -63 18 -73 19 -5 45 -24 64 -48 42 -52 76 -54 120 -5 21 23 41 35 59
35 17 0 38 -12 60 -35 23 -23 43 -35 62 -35 19 0 38 11 59 35 21 23 41 35 59
35 17 0 38 -12 60 -35 22 -22 43 -35 60 -35 17 0 38 13 60 35 22 23 43 35 60
35 18 0 38 -12 59 -35 21 -24 40 -35 59 -35 19 0 39 12 62 35 22 22 43 35 60
35 17 0 37 -12 57 -35 44 -49 79 -48 122 5 19 24 45 43 64 48 38 10 50 51 20
74 -14 10 -18 27 -18 73 0 154 -159 307 -375 360 -93 23 -315 28 -413 10z
m117 -101 c26 -10 18 -24 -14 -24 -29 0 -38 9 -23 23 8 9 17 9 37 1z m285 -13
c22 -14 3 -31 -34 -31 -19 0 -37 5 -41 11 -8 14 14 29 41 29 11 0 26 -4 34 -9z
m-460 -57 c11 -11 -20 -25 -49 -22 -37 3 -51 24 -23 31 18 5 64 -1 72 -9z
m307 2 c17 -13 17 -15 2 -21 -24 -9 -71 -2 -75 12 -4 10 13 19 43 22 5 0 19
-5 30 -13z m312 -8 c-3 -7 -15 -13 -28 -13 -13 0 -25 6 -27 13 -3 8 6 12 27
12 21 0 30 -4 28 -12z m-518 -88 c0 -5 -13 -10 -30 -10 -16 0 -30 5 -30 10 0
6 14 10 30 10 17 0 30 -4 30 -10z m261 -5 c0 -5 -7 -12 -16 -13 -23 -5 -47 6
-40 19 8 13 56 8 56 -6z m-471 -5 c0 -5 -13 -10 -29 -10 -17 0 -33 5 -36 10
-4 6 8 10 29 10 20 0 36 -4 36 -10z m740 -15 c0 -11 -11 -15 -39 -15 -38 0
-57 10 -44 24 3 3 24 6 45 6 27 0 38 -4 38 -15z"/>
<path d="M1225 2555 c-16 -15 -25 -36 -25 -55 0 -19 9 -40 25 -55 l24 -25 559
0 c551 0 560 0 586 21 35 28 36 80 1 114 l-24 25 -561 0 -561 0 -24 -25z"/>
<path d="M1264 2330 c-33 -13 -54 -50 -54 -95 0 -60 31 -102 98 -133 l57 -27
398 -3 c412 -4 500 2 565 36 79 41 108 141 58 199 -23 26 -31 28 -110 32 l-86
3 -87 -69 c-49 -38 -94 -73 -101 -77 -7 -4 -49 22 -108 68 l-96 76 -256 -1
c-141 0 -267 -4 -278 -9z"/>
<path d="M1305 1988 c-34 -12 -65 -36 -65 -50 0 -6 17 -7 38 -4 20 3 72 8 115
12 l77 6 -35 -82 c-55 -128 -154 -404 -161 -450 -8 -47 14 -80 53 -80 19 0 23
5 23 33 0 43 67 288 123 448 l43 124 79 5 c49 3 89 12 103 21 21 15 17 16 -75
22 -140 10 -283 7 -318 -5z"/>
<path d="M2260 1963 c-60 -73 -144 -257 -185 -405 -25 -94 -95 -158 -170 -158
-29 0 -37 5 -46 27 -25 66 59 223 118 223 16 0 15 -34 -2 -72 -11 -26 41 -24
55 1 28 53 1 101 -56 101 -66 0 -122 -46 -167 -135 -60 -120 -198 -185 -228
-108 -16 42 -11 52 34 63 95 26 167 90 167 150 0 35 -17 50 -56 50 -47 0 -77
-14 -124 -56 -76 -69 -112 -178 -75 -231 42 -61 159 -48 238 25 l27 26 0 -23
c0 -12 13 -36 29 -52 23 -23 38 -29 71 -29 47 0 104 26 139 64 30 32 41 33 41
2 0 -28 24 -51 45 -43 8 4 34 48 58 99 24 51 54 102 66 112 20 18 23 19 38 3
16 -15 16 -22 -1 -92 -17 -73 -17 -77 0 -96 11 -13 30 -19 57 -19 36 0 47 6
92 53 51 52 72 92 54 102 -4 3 -20 -13 -35 -36 -33 -53 -72 -89 -95 -89 -24 0
-25 31 -4 90 31 87 11 150 -48 150 -52 0 -90 -31 -130 -106 -38 -72 -44 -69
-26 15 8 40 22 61 69 110 60 62 124 174 136 237 16 88 -30 113 -86 47z m11
-136 c-23 -46 -53 -95 -67 -108 l-26 -24 25 56 c30 69 96 173 104 166 3 -4
-13 -44 -36 -90z m-541 -177 c0 -26 -49 -80 -99 -108 -50 -29 -54 -14 -12 45
52 72 111 105 111 63z"/>
<path d="M2130 1279 c-149 -7 -548 -42 -610 -54 -118 -23 -493 -49 -713 -49
l-247 -1 0 -31 c0 -19 6 -34 15 -38 9 -3 76 -10 150 -16 166 -14 314 -4 800
49 528 59 607 64 899 58 281 -5 412 -21 593 -73 138 -40 143 -41 143 -11 0 23
-9 29 -78 56 -243 93 -547 129 -952 110z"/>
<path d="M1783 950 c-43 -26 -53 -48 -53 -115 0 -49 4 -60 29 -86 25 -25 37
-29 83 -29 60 0 81 10 73 32 -5 12 -17 14 -51 10 -61 -7 -84 15 -84 78 0 69
42 99 106 77 17 -6 23 -3 27 13 10 40 -75 54 -130 20z"/>
<path d="M2530 957 c-63 -32 -45 -101 36 -136 33 -15 45 -25 42 -38 -3 -15
-14 -18 -56 -18 -36 1 -53 -3 -57 -14 -9 -23 10 -33 62 -34 58 -1 91 15 99 49
10 40 -11 73 -60 93 -24 11 -47 25 -51 32 -12 19 23 38 59 32 25 -4 35 -1 39
11 12 31 -66 47 -113 23z"/>
<path d="M950 840 l0 -121 77 3 c65 3 78 6 81 21 3 14 -5 17 -52 17 l-56 0 0
100 0 100 -25 0 -25 0 0 -120z"/>
<path d="M1213 888 c-34 -79 -63 -156 -63 -163 0 -3 11 -5 24 -5 18 0 27 8 35
30 9 28 14 30 56 30 43 0 48 -3 58 -30 8 -21 18 -30 34 -30 32 0 29 17 -20
135 -37 87 -45 100 -68 103 -23 3 -29 -4 -56 -70z m75 -35 c11 -33 11 -33 -23
-33 l-33 0 15 40 c18 44 24 43 41 -7z"/>
<path d="M1450 841 c0 -114 1 -121 20 -121 18 0 20 7 20 83 l1 82 25 -30 c14
-16 39 -54 57 -82 23 -39 38 -53 54 -53 23 0 23 2 23 120 l0 120 -25 0 c-23 0
-24 -3 -27 -70 l-3 -69 -50 67 c-31 42 -58 68 -72 70 -23 3 -23 2 -23 -117z"/>
<path d="M1990 839 c0 -119 0 -120 23 -117 19 3 22 10 25 53 l3 50 47 -1 47
-1 3 -52 c3 -43 6 -51 23 -51 18 0 19 8 19 120 0 113 -1 120 -20 120 -17 0
-20 -7 -20 -45 l0 -45 -50 0 -50 0 0 45 c0 41 -2 45 -25 45 l-25 0 0 -121z"/>
<path d="M2270 840 l0 -120 85 0 c78 0 85 2 85 20 0 18 -7 20 -60 20 l-60 0 0
33 c0 33 0 33 48 33 41 -1 47 2 47 19 0 17 -8 20 -47 23 -43 3 -48 5 -48 28 0
23 3 24 55 24 48 0 55 2 55 20 0 18 -7 20 -80 20 l-80 0 0 -120z"/>
</g>
</svg>
